<svg xmlns="http://www.w3.org/2000/svg" width="200.931" height="200.91" viewBox="0 0 200.931 200.91">
  <g id="_이어_1-2" transform="translate(0.01)">
    <g id="그룹_10" data-name="그룹 10" transform="translate(-0.01)">
      <path id="패스_1" data-name="패스 1" d="M107.12,10.753,100.2,10.6l-1.444,3.176L96.1,13.711,102.659,0l2.533.059,5.926,13.988-2.691-.059Zm-.8-2.038L103.846,2.6,101.116,8.6Z" transform="translate(-1.022)" fill="#e92d2d"/>
      <path id="패스_2" data-name="패스 2" d="M120.6,1.58l5.866,1.5a8.66,8.66,0,0,1,3.6,1.81,6.421,6.421,0,0,1,1.988,3.017,6.882,6.882,0,0,1,.02,3.749,6.91,6.91,0,0,1-1.82,3.284,6.321,6.321,0,0,1-3.185,1.692,8.607,8.607,0,0,1-4.026-.138l-5.866-1.5L120.613,1.58Zm2.859,12.781a5.9,5.9,0,0,0,2.74.1,4.213,4.213,0,0,0,2.137-1.167,4.94,4.94,0,0,0,1.227-2.265,4.973,4.973,0,0,0,.02-2.582A4.153,4.153,0,0,0,128.27,6.4a5.855,5.855,0,0,0-2.453-1.227l-3.255-.831-2.354,9.2,3.255.831Z" transform="translate(-1.248 -0.017)" fill="#e92d2d"/>
      <path id="패스_3" data-name="패스 3" d="M154.159,14.348l-11.673,9.586-2.256-1.148L141.14,7.7l2.483,1.266-.752,11.614,9-7.4,2.3,1.167Z" transform="translate(-1.495 -0.083)" fill="#e92d2d"/>
      <path id="패스_4" data-name="패스 4" d="M161.256,33.008l-5.382-4.363L152.8,30.278l-2.058-1.672L164.3,21.76l1.969,1.593-3.858,14.7-2.087-1.692.94-3.364Zm.613-2.107,1.781-6.351-5.827,3.077Z" transform="translate(-1.608 -0.234)" fill="#e92d2d"/>
      <path id="패스_5" data-name="패스 5" d="M185.1,43.615l-10.892,8.557L172.9,50.51l2.651-11.8-7.37,5.8L166.61,42.5,177.5,33.94l1.306,1.662-2.651,11.8,7.37-5.8Z" transform="translate(-1.779 -0.364)" fill="#e92d2d"/>
      <path id="패스_6" data-name="패스 6" d="M180.21,61.218a6.739,6.739,0,0,1,1.157-3.482,7.089,7.089,0,0,1,2.9-2.434,7,7,0,0,1,3.72-.692,6.858,6.858,0,0,1,3.433,1.316,7.748,7.748,0,0,1,2.453,3.027,7.875,7.875,0,0,1,.791,3.057,6.439,6.439,0,0,1-.534,2.879L192,64.057a4.871,4.871,0,0,0-.119-4.036,5.211,5.211,0,0,0-1.652-2.038,4.528,4.528,0,0,0-2.315-.851,5.292,5.292,0,0,0-4.541,2.157,4.484,4.484,0,0,0-.811,2.335A5.135,5.135,0,0,0,183.1,64.2a4.808,4.808,0,0,0,3.067,2.641l-.722,2.176a6.338,6.338,0,0,1-2.572-1.415A7.913,7.913,0,0,1,181,65.037a7.77,7.77,0,0,1-.791-3.819Z" transform="translate(-1.924 -0.586)" fill="#e92d2d"/>
      <path id="패스_7" data-name="패스 7" d="M190.121,86.061l-2.1.495-2.4-10.1,13.474-3.205,2.345,9.833-2.1.495-1.741-7.33-3.5.831,1.543,6.509-2.058.495-1.543-6.509-3.72.88,1.81,7.607Z" transform="translate(-1.983 -0.786)" fill="#e92d2d"/>
      <path id="패스_8" data-name="패스 8" d="M202.85,93.52l.1,6.054a8.624,8.624,0,0,1-.8,3.947,6.382,6.382,0,0,1-2.394,2.711,6.842,6.842,0,0,1-3.611,1.009,6.942,6.942,0,0,1-3.65-.89,6.359,6.359,0,0,1-2.473-2.631,8.613,8.613,0,0,1-.92-3.927l-.1-6.054,13.85-.228Zm-11.574,6.124a5.974,5.974,0,0,0,.623,2.671,4.247,4.247,0,0,0,1.692,1.751,4.942,4.942,0,0,0,2.513.584,4.876,4.876,0,0,0,2.493-.663,4.147,4.147,0,0,0,1.632-1.81,5.977,5.977,0,0,0,.544-2.691l-.049-3.364-9.5.158.049,3.364Z" transform="translate(-2.019 -1.004)" fill="#e92d2d"/>
      <path id="패스_9" data-name="패스 9" d="M192.463,115.147a1.765,1.765,0,0,1,2.354.376,1.7,1.7,0,0,1-.356,2.3,1.659,1.659,0,0,1-2.631-1.613,1.579,1.579,0,0,1,.633-1.068Z" transform="translate(-2.049 -1.233)" fill="#e92d2d"/>
      <path id="패스_10" data-name="패스 10" d="M196.591,130.1l1.375-4.373,2.077.653-3.532,11.208-2.077-.653,1.385-4.382-11.129-3.512.772-2.453,11.129,3.512Z" transform="translate(-1.973 -1.35)" fill="#e92d2d"/>
      <path id="패스_11" data-name="패스 11" d="M177.609,149.33l-1.889-1.039,4.986-9.111,12.148,6.648-4.847,8.874-1.89-1.039,3.621-6.618-3.156-1.731-3.205,5.866-1.86-1.019,3.205-5.866-3.354-1.83-3.749,6.856Z" transform="translate(-1.876 -1.494)" fill="#e92d2d"/>
      <path id="패스_12" data-name="패스 12" d="M170.445,156.7a6.789,6.789,0,0,1,3.65-.366,7.456,7.456,0,0,1,5.56,4.768,6.806,6.806,0,0,1,.208,3.67,7.826,7.826,0,0,1-1.761,3.482,8,8,0,0,1-2.473,1.979,6.293,6.293,0,0,1-2.849.683l-.109-2.275a4.837,4.837,0,0,0,3.641-1.761,5.288,5.288,0,0,0,1.187-2.345,4.443,4.443,0,0,0-.168-2.463,5.015,5.015,0,0,0-1.5-2.117,4.9,4.9,0,0,0-2.325-1.148,4.472,4.472,0,0,0-2.463.218,5.3,5.3,0,0,0-2.137,1.533,4.828,4.828,0,0,0-1.157,3.878l-2.285.237a6.417,6.417,0,0,1,.237-2.928,8.366,8.366,0,0,1,4.739-5.035Z" transform="translate(-1.765 -1.677)" fill="#e92d2d"/>
      <path id="패스_13" data-name="패스 13" d="M157.25,186.38l-8.29-11.09,2.058-1.543,3.551,4.758,5.738-4.284-3.551-4.758,2.058-1.543,8.29,11.09-2.058,1.543-3.423-4.58-5.738,4.284,3.423,4.58Z" transform="translate(-1.589 -1.803)" fill="#e92d2d"/>
      <path id="패스_14" data-name="패스 14" d="M136.18,196.949l-5.51-12.712,1.939-.841,10.734,5.57-3.73-8.607,2.345-1.019,5.51,12.7-1.939.841-10.734-5.57,3.73,8.607-2.345,1.019Z" transform="translate(-1.393 -1.925)" fill="#e92d2d"/>
      <path id="패스_15" data-name="패스 15" d="M120.48,187.766a6.834,6.834,0,0,1,3.067,2.058,7.364,7.364,0,0,1,1.256,7.192,6.8,6.8,0,0,1-2.2,2.968,8.341,8.341,0,0,1-7.518,1.306,6.9,6.9,0,0,1-3.067-2.048,7.007,7.007,0,0,1-1.583-3.443,7.1,7.1,0,0,1,.326-3.769,6.831,6.831,0,0,1,2.2-2.958,8.341,8.341,0,0,1,7.518-1.306Zm-5.886,3.007a4.5,4.5,0,0,0-1.415,2.018,5.255,5.255,0,0,0,.851,4.927,4.479,4.479,0,0,0,2.008,1.415,4.951,4.951,0,0,0,2.562.188,5.055,5.055,0,0,0,2.354-1.039,4.5,4.5,0,0,0,1.415-2.018,5.255,5.255,0,0,0-.851-4.927,4.454,4.454,0,0,0-2.018-1.415,4.951,4.951,0,0,0-2.562-.188,5.055,5.055,0,0,0-2.354,1.039Z" transform="translate(-1.174 -2.011)" fill="#e92d2d"/>
      <path id="패스_16" data-name="패스 16" d="M101.579,202.936l-2.572-.1.455-11.663-7.232-.287.089-2.176,9.8.386-.544,13.84Z" transform="translate(-0.98 -2.026)" fill="#e92d2d"/>
      <path id="패스_17" data-name="패스 17" d="M83.4,187.937a6.763,6.763,0,0,1,1.959,3.136,7.346,7.346,0,0,1-1.8,7.073,6.688,6.688,0,0,1-3.215,1.81,8.388,8.388,0,0,1-7.4-1.88,6.783,6.783,0,0,1-1.959-3.126,7.383,7.383,0,0,1,1.8-7.093,6.753,6.753,0,0,1,3.215-1.8,8.388,8.388,0,0,1,7.4,1.88Zm-6.6.346a4.511,4.511,0,0,0-2.117,1.256,5.251,5.251,0,0,0-1.227,4.847,4.545,4.545,0,0,0,1.256,2.117,4.985,4.985,0,0,0,2.265,1.217,5.038,5.038,0,0,0,2.572.01,4.512,4.512,0,0,0,2.117-1.256,5.251,5.251,0,0,0,1.227-4.847,4.545,4.545,0,0,0-1.256-2.117,4.985,4.985,0,0,0-2.265-1.217A5.038,5.038,0,0,0,76.8,188.283Z" transform="translate(-0.749 -1.995)" fill="#e92d2d"/>
      <path id="패스_18" data-name="패스 18" d="M54.441,183.633l-2.157-1.128,2.562-4.887a7.881,7.881,0,0,1,2.81,0,9.82,9.82,0,0,1,2.81.95,7.931,7.931,0,0,1,2.958,2.582,6.809,6.809,0,0,1,1.187,3.492,7.4,7.4,0,0,1-3.393,6.48,6.8,6.8,0,0,1-3.551,1.009,8.04,8.04,0,0,1-3.838-.969,8.307,8.307,0,0,1-2.542-1.979,6.307,6.307,0,0,1-1.345-2.6l2.176-.653a5.2,5.2,0,0,0,2.651,3.176,5.376,5.376,0,0,0,2.592.663,4.471,4.471,0,0,0,2.374-.7,5.237,5.237,0,0,0,2.325-4.452,4.63,4.63,0,0,0-.772-2.364,5.191,5.191,0,0,0-2-1.761,5.559,5.559,0,0,0-2.849-.692l-2,3.819Z" transform="translate(-0.526 -1.905)" fill="#e92d2d"/>
      <path id="패스_19" data-name="패스 19" d="M41.433,171.729l3.126-3.759,1.979,1.642-3.1,3.73-1.573,10.4-2.117-1.761,1.2-7.786-7.459,2.572-1.949-1.622,9.9-3.423Z" transform="translate(-0.329 -1.803)" fill="#e92d2d"/>
      <path id="패스_20" data-name="패스 20" d="M33.714,163.4a1.659,1.659,0,0,1-2.9,1.029,1.556,1.556,0,0,1-.435-1.177,1.652,1.652,0,0,1,2.908-1.019,1.549,1.549,0,0,1,.425,1.167Z" transform="translate(-0.316 -1.735)" fill="#e92d2d"/>
      <path id="패스_21" data-name="패스 21" d="M22.825,144.927l1.82-1.157,5.589,8.755-11.673,7.459-5.441-8.518,1.82-1.157L19,156.66l3.037-1.939-3.6-5.639,1.781-1.138,3.6,5.639,3.215-2.058-4.2-6.589Z" transform="translate(-0.131 -1.543)" fill="#e92d2d"/>
      <path id="패스_22" data-name="패스 22" d="M18.369,129.23,14.8,134.621l6.242,1.593,1.049,2.73-8.438-2.275-4.6,6.974-1.039-2.72,3.334-5.065-5.856-1.514-1-2.6,7.973,2.137,4.828-7.419,1.059,2.77Z" transform="translate(-0.038 -1.357)" fill="#e92d2d"/>
      <path id="패스_23" data-name="패스 23" d="M14.789,118.233A6.743,6.743,0,0,1,12.7,121.25a6.994,6.994,0,0,1-3.462,1.523,6.99,6.99,0,0,1-3.769-.376,6.812,6.812,0,0,1-2.928-2.226,7.92,7.92,0,0,1-1.514-3.591,8.052,8.052,0,0,1,.089-3.166,6.278,6.278,0,0,1,1.326-2.622l1.81,1.395A4.853,4.853,0,0,0,3.235,116.1a5.244,5.244,0,0,0,1.019,2.424,4.421,4.421,0,0,0,1.988,1.464,5,5,0,0,0,2.582.228,4.968,4.968,0,0,0,2.384-1.029,4.54,4.54,0,0,0,1.434-2.018,5.16,5.16,0,0,0,.208-2.622,4.858,4.858,0,0,0-2.206-3.393l1.3-1.889a6.413,6.413,0,0,1,2.077,2.077,8.357,8.357,0,0,1,.772,6.866Z" transform="translate(0 -1.173)" fill="#e92d2d"/>
      <path id="패스_24" data-name="패스 24" d="M12.158,91.607l2.157.1-.485,10.377L-.01,101.44l.465-10.1,2.157.1-.346,7.528,3.6.168.307-6.678,2.117.1-.307,6.678,3.819.178.366-7.805Z" transform="translate(0.01 -0.98)" fill="#e92d2d"/>
      <path id="패스_25" data-name="패스 25" d="M2.04,81.207l.613-2.5,11.337,2.78,1.721-7.034,2.117.514-2.335,9.527L2.04,81.2Z" transform="translate(-0.012 -0.799)" fill="#e92d2d"/>
      <path id="패스_26" data-name="패스 26" d="M7.49,63.176l1.068-2.345,10.625,4.838,3-6.589,1.979.9-4.066,8.933L7.49,63.176Z" transform="translate(-0.071 -0.634)" fill="#e92d2d"/>
      <path id="패스_27" data-name="패스 27" d="M31.771,44.679l1.751,1.256-6.044,8.448L16.22,46.321,22.106,38.1l1.751,1.256L19.475,45.49l2.928,2.1,3.888-5.441,1.721,1.237-3.888,5.441,3.106,2.226L31.781,44.7Z" transform="translate(-0.164 -0.409)" fill="#e92d2d"/>
      <path id="패스_28" data-name="패스 28" d="M38.191,21.93,47.46,32.218l-1.573,1.415-11.95-1.85,6.282,6.964-1.9,1.711L29.05,30.171l1.573-1.415,11.95,1.85-6.282-6.964Z" transform="translate(-0.302 -0.235)" fill="#e92d2d"/>
      <path id="패스_29" data-name="패스 29" d="M56.043,25.682a6.686,6.686,0,0,1-3.551-.92,7.429,7.429,0,0,1-3.581-6.391,6.934,6.934,0,0,1,1.078-3.522,8.323,8.323,0,0,1,5.856-3.66,6.416,6.416,0,0,1,2.908.336L58.071,13.7a4.844,4.844,0,0,0-4.016.4,5.165,5.165,0,0,0-1.919,1.791,4.513,4.513,0,0,0-.692,2.374,5.087,5.087,0,0,0,.673,2.5,4.875,4.875,0,0,0,1.781,1.88,4.574,4.574,0,0,0,2.384.653,5.131,5.131,0,0,0,2.533-.7,4.814,4.814,0,0,0,2.424-3.245l2.226.564a6.344,6.344,0,0,1-1.237,2.671A7.92,7.92,0,0,1,59.8,24.624a7.731,7.731,0,0,1-3.749,1.049Z" transform="translate(-0.515 -0.12)" fill="#e92d2d"/>
      <path id="패스_30" data-name="패스 30" d="M80.155,14.06l.643,2.058-9.912,3.1L66.76,5.987,76.415,2.98l.643,2.058L69.866,7.283l1.068,3.433,6.381-1.988.633,2.018-6.381,1.988,1.138,3.64,7.459-2.325Z" transform="translate(-0.707 -0.032)" fill="#e92d2d"/>
      <path id="패스_31" data-name="패스 31" d="M86.933,10.767A1.588,1.588,0,0,1,86.3,9.639,1.632,1.632,0,0,1,86.587,8.4a1.564,1.564,0,0,1,1.078-.633,1.557,1.557,0,0,1,1.85,1.385,1.626,1.626,0,0,1-.277,1.256,1.568,1.568,0,0,1-1.088.623,1.6,1.6,0,0,1-1.207-.277Z" transform="translate(-0.916 -0.083)" fill="#e92d2d"/>
    </g>
  </g>
</svg>
